<svg xmlns="http://www.w3.org/2000/svg" xmlns:xlink="http://www.w3.org/1999/xlink" xml:space="preserve" id="Layer_1" x="0" y="0" version="1.1" viewBox="0 0 2400 1300"><style>.st7{clip-path:url(#SVGID_00000102528878267490763260000009488484192918841485_);fill:#00112C;stroke:#00112C;stroke-width:1.5;stroke-linecap:round;stroke-linejoin:round;stroke-miterlimit:10}.st8{clip-path:url(#SVGID_00000181806239082237992290000007386646831098070410_);fill:#00112C;stroke:#00112C;stroke-width:1.5;stroke-linecap:round;stroke-linejoin:round;stroke-miterlimit:10}</style><path fill="#85DFA9" stroke="#00112C" stroke-linecap="round" stroke-linejoin="round" stroke-width="1.5" d="M1175.7 684.1c20.5-6 30.4-33.5 22.2-61.4-8.2-27.8-31.5-45.5-51.9-39.5-20.5 6-30.4 33.5-22.2 61.4s31.5 45.5 51.9 39.5"/><path fill="#0ABF53" stroke="#00112C" stroke-linecap="round" stroke-linejoin="round" stroke-width="1.5" d="M1190.8 679.6c20.5-6 30.4-33.5 22.2-61.4-8.2-27.8-31.5-45.5-51.9-39.5-20.5 6-30.4 33.5-22.2 61.4s31.5 45.6 51.9 39.5M1395.5 715.5s130.1-23.8 170.4 90.4c35 99.1 0 402.7 0 402.7s-443.7 1.2-443.7 0-25.4-140.9-33.9-209.1 38.2-203.8 95-227.5 212.2-56.5 212.2-56.5"/><path fill="#00112C" stroke="#00112C" stroke-linecap="round" stroke-linejoin="round" stroke-width="1.5" d="M1266.5 423.7s-38.5-2.1-70.1 15.9-85 79.9-62.4 131.1c48.8 110.5 26.9 119.2 13.6 231.8-6.3 53.8 5 206.7.2 240.2-4.8 33.6.9 104.9.9 104.9l63 8.2s38-52.9 43.4-91 4.1-112.6 6.8-136.9c5.6-51.5 31.3-72 31.9-112.2s10.4-91.7-24-138c0 .1-28.1-206.1-3.3-254"/><path fill="#BA5232" stroke="#00112C" stroke-linecap="round" stroke-linejoin="round" stroke-miterlimit="10" stroke-width="1.5" d="m1290.4 883.7-17.8 5.8s4.2-62.5 2.5-93.2c-.5-10 6.6-52.5-14.9-77.7s83.3-52.4 83.3-52.4l5.8 78.9 19.6 39.5z"/><path fill="#BA5232" stroke="#00112C" stroke-linecap="round" stroke-linejoin="round" stroke-miterlimit="10" stroke-width="1.5" d="M1374.4 652.1c-10.2-39-29.8-145.8-69.5-170.2-12.8-7.9-25.7-11.9-38.2-13.6-34.2-4.6-42.1 25.2-59.4 55-18.2 31.2-61.7 22.2-35.6 91.3 6.4 16.8 19.2 54.4 39.4 73.1 20 18.6 32.3 31.8 47.7 33.9s54.5-22.5 62.7-32.7"/><path fill="#00112C" stroke="#00112C" stroke-linecap="round" stroke-linejoin="round" stroke-width="1.5" d="M1266.5 423.7c16.8-5.8 78.9-13.2 107.5 40.8s41.6 117.1 53.7 150.3 12.6 81.7 72.3 115.3c0 0-38.8-14-51 14.9s-33.4 136.4-26.3 189.8 27.5 209 12.7 197.9c-14.8-11.2-69.5 20.8-84.5 19.5-15.1-1.3-36.3-153.4-39.6-192.8-4.5-52.7-2.5-107.7-1.5-114.3s-13.8 56.5-6 139.4c0 0-7.9-2.1-11.6-17.5s-1.6-140 .7-164 40.6-69.1 45.4-103.1 21.4-118.3 5.5-148.7c-16-30.5-47.9-14.2-74.7-57.8-8-13.1-15.8-34.8-15.8-34.8z"/><path fill="#0ABF53" stroke="#00112C" stroke-linecap="round" stroke-linejoin="round" stroke-width="1.5" d="M1474.3 891.6c6.6 69.5 56.3 184.1 51.3 179.6-5.1-4.5-25.5 27.4-25.5 27.4-21.4-1.4-64.6 33.9-64.6 33.9 18.5 51.4 59.7 79.8 59.7 79.8l109.3-5.9c32.5 1.9 50.2-63.2 50.5-98.6s-31.5-214.1-44.8-260-94.3-108.8-94.3-108.8"/><path fill="none" stroke="#00112C" stroke-linecap="round" stroke-linejoin="round" stroke-width="1.5" d="M1606.2 1098.1c-2.6-2.8-36.9-27.9-80.6-26.8 0 0 60.8 11 79.1 54.9"/><path fill="#00112C" stroke="#00112C" stroke-linecap="round" stroke-linejoin="round" stroke-width="1.5" d="M1324.3 686.1s-23.4 43.9-49.6 60.3l-12.4-24.9s32-4.4 62-35.4"/><path fill="none" stroke="#00112C" stroke-linecap="round" stroke-linejoin="round" stroke-miterlimit="10" stroke-width="1.5" d="M1223 595.3c6.4 15 5.7 32 8.2 48.2.8 5.3 2.5 11.4 7.4 13.6 3.4 1.6 7.5.8 10.7-1 3.2-1.9 5.8-4.7 8.3-7.5"/><path fill="#BA5232" stroke="#00112C" stroke-linecap="round" stroke-linejoin="round" stroke-miterlimit="10" stroke-width="1.5" d="M1340.2 551.7c.6-4.6.8-23.4 13.6-22.2 24.4 2.3 26.9 33.7 27 42.8.2 9.1-2.7 18.5-9.4 24.8-6.6 6.2-17.2 8.5-25.1 4"/><path fill="none" stroke="#00112C" stroke-linecap="round" stroke-linejoin="round" stroke-miterlimit="10" stroke-width="1.5" d="M1362.8 545.6c-1.4-1.4-3.8-1.4-5.6-.4-1.7 1-2.9 2.7-3.9 4.5-5 9.3-4.7 21.1.6 30.1"/><path fill="#00112C" stroke="#00112C" stroke-linecap="round" stroke-linejoin="round" stroke-width="1.5" d="M1292.8 544.3s-24.9-5.3-45 13.1c-4.7 4.3-12.6 6.2-14.2 2.4s4.9-10 19.1-16c18.3-7.7 36.8-3.5 40.1.5M1164.9 595.9c0-7.4 6.2-13.7 13.2-16.1 7-2.5 14.9.7 22-1.4 2.9-.8 4.5-4.5-1-5.6-5.4-1.1-17.6-2.7-25.7 5.5s-8.5 17.6-8.5 17.6"/><ellipse cx="1272.6" cy="583.6" fill="#FFF" rx="23.2" ry="15.3" transform="rotate(-36.467 1272.578 583.53)"/><path fill="none" stroke="#00112C" stroke-linecap="round" stroke-linejoin="round" stroke-miterlimit="10" stroke-width="1.5" d="M1263.5 571.3c-10.3 7.6-14.6 19.3-9.6 26.1M1291.3 569.8c-5-6.8-17.4-6.1-27.8 1.5"/><defs><ellipse id="SVGID_1_" cx="1272.6" cy="583.6" rx="23.2" ry="15.3" transform="rotate(-36.467 1272.578 583.53)"/></defs><clipPath id="SVGID_00000080890572138032305710000017491952342640338074_"><use xlink:href="#SVGID_1_" overflow="visible"/></clipPath><circle cx="1270.2" cy="589.6" r="14.4" fill="#00112C" stroke="#00112C" stroke-linecap="round" stroke-linejoin="round" stroke-miterlimit="10" stroke-width="1.5" clip-path="url(#SVGID_00000080890572138032305710000017491952342640338074_)"/><ellipse cx="1201.4" cy="607.9" fill="#FFF" rx="20.2" ry="14.6" transform="matrix(.9973 -.07365 .07365 .9973 -41.51 90.134)"/><path fill="none" stroke="#00112C" stroke-linecap="round" stroke-linejoin="round" stroke-miterlimit="10" stroke-width="1.5" d="M1198.3 593.5c-12.2.9-17.6 7.8-17.1 15.9 0 0-5.6 5.5-9.2.6M1221.5 606.4c-.6-8-11-13.8-23.2-12.9"/><defs><ellipse id="SVGID_00000114054029361136770530000005180882508281362351_" cx="1201.4" cy="607.9" rx="20.2" ry="14.6" transform="matrix(.9973 -.07365 .07365 .9973 -41.51 90.134)"/></defs><clipPath id="SVGID_00000013192958869624766060000009992499715530578084_"><use xlink:href="#SVGID_00000114054029361136770530000005180882508281362351_" overflow="visible"/></clipPath><circle cx="1197.1" cy="614.7" r="13.8" fill="#00112C" stroke="#00112C" stroke-linecap="round" stroke-linejoin="round" stroke-miterlimit="10" stroke-width="1.5" clip-path="url(#SVGID_00000013192958869624766060000009992499715530578084_)"/><path fill="#7F2C21" d="M1289.8 655.3s-18.1 4-26.3 10.9-13.7 22.9-13.7 22.9 14.6 7.4 30.2-2.4c13.1-8.3 9.8-31.4 9.8-31.4"/><path fill="none" stroke="#00112C" stroke-linecap="round" stroke-linejoin="round" stroke-miterlimit="10" stroke-width="1.5" d="M1291 649.8c-1.3 17.8-30.8 36.8-46.4 40.2"/><path fill="#00112C" stroke="#00112C" stroke-linecap="round" stroke-linejoin="round" stroke-width="1.5" d="M1291.3 569.8s6.2 1.4 9.6-4.9"/><path fill="none" stroke="#00112C" stroke-linecap="round" stroke-linejoin="round" stroke-width="1.5" d="M1311.1 289.1h-230.6L487 1194.8h1417.6z"/><path fill="#D7F5E3" stroke="#00112C" stroke-linecap="round" stroke-linejoin="round" stroke-width="1.5" d="m1164.8 158.4-90 137.4c-6.6 10 .6 23.3 12.6 23.3h216.8c12 0 19.1-13.3 12.6-23.3l-90-137.4z"/><path fill="none" stroke="#00112C" stroke-linecap="round" stroke-linejoin="round" stroke-width="1.5" d="M1195.5 120.5v-129"/><path fill="#85DFA9" stroke="#00112C" stroke-linecap="round" stroke-linejoin="round" stroke-width="1.5" d="M1173.2 158.4h44.9c4.7 0 8.6-3.8 8.6-8.6v-20.7c0-4.7-3.8-8.6-8.6-8.6h-45.3c-4.8 0-8.7 3.9-8.6 8.8l.4 20.7c.1 4.6 3.9 8.4 8.6 8.4"/><path fill="none" stroke="#00112C" stroke-linecap="round" stroke-linejoin="round" stroke-width="1.5" d="M1206.3 158.4v-18.9M1184.8 158.4v-18.9"/><path fill="#BA5232" stroke="#00112C" stroke-linecap="round" stroke-linejoin="round" stroke-miterlimit="10" stroke-width="1.5" d="M1186.9 1138.3c-13.9 2.8-27.9 5.6-41.8 8.4-.4 6.7 3.8 13.7 9.5 17 5.8 3.4 12.8 4 19.4 3"/><path fill="#BA5232" stroke="#00112C" stroke-linecap="round" stroke-linejoin="round" stroke-miterlimit="10" stroke-width="1.5" d="M1205.8 1117.8c7.3-7.8 17.8-11.6 28.4-10.5l135.2 20c3.8.6 7.6.8 11.5.8h56l51.7-13.1c9.3-2.1 18.9-2.1 28.1.4 39.9 11.3 42.5 60.9 33.7 79.3h-239.9l1.8-23.6h-156.8z"/><path fill="none" stroke="#00112C" stroke-linecap="round" stroke-linejoin="round" stroke-width="1.5" d="m1226.7 1132.5-39.4 38.7M1255.6 1137.7l-34.1 33.5M1282.2 1145l-26.7 26.2"/><path fill="#00112C" stroke="#00112C" stroke-linecap="round" stroke-linejoin="round" stroke-width="1.5" d="m1395.5 1171.1 21.6 23.7h-45.2z"/><path fill="none" stroke="#00112C" stroke-linecap="round" stroke-linejoin="round" stroke-width="1.5" d="M879.5 822v-52.5"/><path fill="#00112C" stroke="#00112C" stroke-linecap="round" stroke-linejoin="round" stroke-width="1.5" d="M1017.9 533.4H741c-8.1 0-14.6 6.5-14.6 14.6v209.5c0 8.1 6.5 14.6 14.6 14.6h277c8.1 0 14.6-6.5 14.6-14.6V547.9c-.1-8-6.6-14.5-14.7-14.5"/><path fill="none" stroke="#0ABF53" stroke-linecap="round" stroke-linejoin="round" stroke-width="1.4" d="M996.3 571H762.6v163.2h233.7z"/><path fill="none" stroke="#EEEFF1" stroke-linecap="round" stroke-linejoin="round" stroke-width="1.4" d="m794.1 588.4-6.9 6.9 6.9 6.9M802.7 595.3H820"/><path fill="none" stroke="#85DFA9" stroke-linecap="round" stroke-linejoin="round" stroke-width="1.4" d="M828.7 595.3h51.9M794.1 636.8l-6.9 6.9 6.9 6.9M802.7 643.7h34.6"/><path fill="none" stroke="#EEEFF1" stroke-linecap="round" stroke-linejoin="round" stroke-width="1.4" d="m943.2 626.4 6.9-6.9-6.9-6.9M801.6 668.2h17.3"/><path fill="none" stroke="#85DFA9" stroke-linecap="round" stroke-linejoin="round" stroke-width="1.4" d="M827.6 668.2h17.3"/><path fill="none" stroke="#EEEFF1" stroke-linecap="round" stroke-linejoin="round" stroke-width="1.4" d="M853.5 668.2h25.9M785.4 619.5H820M828.7 619.5h26"/><path fill="none" stroke="#85DFA9" stroke-linecap="round" stroke-linejoin="round" stroke-width="1.4" d="M975.2 644h-34.6M924.4 644h-74.6"/><path fill="none" stroke="#EEEFF1" stroke-linecap="round" stroke-linejoin="round" stroke-width="1.4" d="M950.3 595.3h-51.9M924.4 619.5h-26M888.8 619.5h-26M914.8 668.2h-25.9M928.8 626.4l8.1-13.8"/><path fill="#85DFA9" stroke="#00112C" stroke-linecap="round" stroke-linejoin="round" stroke-width="1.5" d="M656.2 1194H567c-4.5 0-8.2-3.4-8.7-7.8l-16.6-150.8h139.7l-16.6 150.8c-.4 4.5-4.2 7.8-8.6 7.8"/><path fill="#00112C" stroke="#00112C" stroke-linecap="round" stroke-linejoin="round" stroke-width="1.5" d="M572.9 1176.4h77.4c8.9 0 16.4-6.8 17.4-15.7l9.9-90.1h-132l9.9 90.1c1 9 8.5 15.7 17.4 15.7"/><path fill="#FFF" stroke="#00112C" stroke-linecap="round" stroke-linejoin="round" stroke-width="1.5" d="m543.7 1053 1.9 17.6h131.9l1.9-17.6z"/><path fill="none" stroke="#FFF" stroke-linecap="round" stroke-linejoin="round" stroke-width="1.5" d="m576.7 1035.4 7 98.7c1 13.9 12.5 24.7 26.3 24.7h3.3c13.8 0 25.3-10.8 26.3-24.7l7-98.7"/><path fill="none" stroke="#FFF" stroke-linecap="round" stroke-linejoin="round" stroke-width="1.5" d="m646.5 1035.4-6.7 94.9c-1.1 15.4 11 28.5 26.3 28.5M576.7 1035.4l6.7 94.9c1.1 15.4-11 28.5-26.3 28.5"/><path fill="none" stroke="#00112C" stroke-linecap="round" stroke-linejoin="round" stroke-width="1.5" d="m576.7 1035.4 2.4 33.5M644.1 1068.9l2.4-33.5"/><path fill="#00112C" stroke="#00112C" stroke-linecap="round" stroke-linejoin="round" stroke-width="1.5" d="M780.4 1171.1c0 13.1 10.6 23.7 23.7 23.7h402.2v-23.7z"/><path fill="#6F7987" stroke="#00112C" stroke-linecap="round" stroke-linejoin="round" stroke-miterlimit="10" stroke-width="1.5" d="M1158.9 1171.1c0 13.1 10.6 23.7 23.7 23.7h189.3c13.1 0 23.7-10.6 23.7-23.7z"/><path fill="#EEEFF1" stroke="#00112C" stroke-linecap="round" stroke-linejoin="round" stroke-width="1.5" d="m1172.5 1147.1-81.9-286.5c-3.5-12.2-14.6-20.6-27.3-20.6H707.7c-12.6 0-21.6 12-18.2 24.1l81.9 286.5c3.5 12.2 14.6 20.6 27.3 20.6h355.7c12.5 0 21.6-12 18.1-24.1"/><path fill="#DEE0E6" stroke="#00112C" stroke-linecap="round" stroke-linejoin="round" stroke-miterlimit="10" stroke-width="1.5" d="m1154.2 1147.1-81.9-286.5c-3.5-12.2-14.6-20.6-27.3-20.6H689.4c-12.6 0-21.6 12-18.2 24.1l81.9 286.5c3.5 12.2 14.6 20.6 27.3 20.6h355.7c12.5 0 21.6-12 18.1-24.1"/><path fill="#FFF" stroke="#00112C" stroke-linecap="round" stroke-linejoin="round" stroke-width="1.5" d="M916.1 1018.6c6.1-6.6 4.6-17.9-3.3-25.1s-19.2-7.7-25.3-1.1-4.6 17.9 3.3 25.1c7.9 7.3 19.2 7.8 25.3 1.1"/><path fill="#08913F" stroke="#00112C" stroke-linecap="round" stroke-linejoin="round" stroke-width="1.5" d="m890.3 1112.3-53.1-10.3c-11.7-2.3-21-13.9-20.8-26l.3-17.9c0-2.2 1.8-3.6 3.9-3.2l70.4 13.6c11.7 2.3 21 13.9 20.8 26s-9.8 20-21.5 17.8"/><path fill="#FFF" d="m842.2 1069.5 1.7.3-.1 3.8c0 .6-.1 3.4-.2 4.6h.1c.8-1.4 2.3-1.9 4-1.6 2.4.5 4.4 2.2 4.3 6l-.1 7.7-1.7-.3.1-7.5c.1-2.8-1.2-4.1-3-4.5-2-.4-3.7 1-3.7 4.1l-.1 6.6-1.7-.3zM860.7 1079.1c3 .6 5.2 3.2 5.2 7v.7l-9.1-1.8c0 3 1.5 5.2 3.9 5.7 1.9.4 3.1-.5 3.4-1.9l1.7.3c-.4 2.2-2.4 3.6-5.1 3.1-3.7-.7-5.7-3.7-5.6-7.7 0-3.9 2.4-6 5.6-5.4m-3.8 4.7 7.3 1.4c-.1-2.7-1.5-4.2-3.5-4.6s-3.4.8-3.8 3.2M868.2 1097.9c1.5.3 2.5-.5 3.1-2.1l.5-1.2-4.6-13.9 1.9.3 3.6 11.4h.1l3.9-10 1.7.3-5.6 13.7c-.7 1.7-1.8 3.4-4.2 2.9l-1-.2v-1.5zM880.7 1082.8l.1-4.7 2 .4-.1 4.7-.7 8-.9-.2zm-.2 10.4 2 .4-.1 2.6-2-.4z"/><path fill="#00112C" stroke="#00112C" stroke-linecap="round" stroke-linejoin="round" stroke-width="1.5" d="m891.4 1102.6 6 33.1c.2 1.2 1.6 1.7 2.3.9l7.1-9.2c.2-.2.4-.3.7-.4l11.6-1.1c1-.1 1.3-1.5.4-2.3l-26.1-22.1c-1-.7-2.2-.1-2 1.1"/><path fill="none" stroke="#85DFA9" stroke-linecap="round" stroke-linejoin="round" stroke-width="1.5" d="M893.6 1074.8c6.8 2.8 12 10.9 12.4 17.9"/><path fill="#0ABF53" stroke="#00112C" stroke-linecap="round" stroke-linejoin="round" stroke-width="1.5" d="M766 983.1c-1.6-.7-3.1-1.6-4.6-2.4-3.8-2.2-7.6-5.6-8.3-9.6 3 .5 7.1.6 9.9 1.8-8.7-3.7-14.6-12.8-17.7-21.5s-4.4-18.2-1.2-25.7c.1-.3.6-.2.8.1.9 1.7 3 5.7 6.4 9.6 4.6 5.2 11.1 5.8 11.1 5.8-2.6-4.9-4.3-11-2.9-16.5 1-4.2 4-7.3 6.5-10.7 2.9-3.9 4.2-8.9 3.6-14.1-.6-5.6-3.3-10-6.5-14.9 9.4-1 20.1 3.7 27.8 10.5 9 8 12.6 18.6 14.2 29.2 1.2 7.5 5.6 4 6.1-1 .2-2.1.1-4.6 1.1-6.3 4.6 2.8 8.9 8.9 11.2 13.6 6.1 12.2 3.5 25.2.7 37.1l6-6.7c1.2 2.4 1.3 5.1.9 7.5-1.5 9.4-9.4 15.7-18.2 18.3-13.2 3.8-32 2.8-46.9-4.1"/><path fill="#85DFA9" stroke="#00112C" stroke-linecap="round" stroke-linejoin="round" stroke-width="1.5" d="M785.3 986.6c-7.9-3.5-14-11.7-17.7-19.1-1.2-2.4-2.2-4.9-2.9-7.4-1.3-4.6-1.6-9.8 1.3-12.8 2.5 2.4 5.6 4.2 8.7 5.1-3.2-3.7-3.2-8.7-2.5-13 1.1-7.4 3.5-14.4 7.1-20.7 5.6 4.9 11.3 9.9 16 15.7s8.4 12.5 9.3 19.4c1.7-2 3.3-4.1 5-6.1 5.3 6.3 7.9 14.5 6.8 21.7-.7 4.9-3.6 11.8-7.1 14.9-6 5.3-14.5 6.6-23.7 2.6q-.15-.3-.3-.3"/><path fill="#FFF" d="M804 984.3c4.4-4.8 3.3-12.9-2.4-18.1s-13.8-5.6-18.2-.8-3.3 12.9 2.4 18.1 13.8 5.6 18.2.8"/><path fill="#0ABF53" stroke="#00112C" stroke-linecap="round" stroke-linejoin="round" stroke-width="1.5" d="M749.9 906.6c1-.8 2.1-1.4 3-1.8.8-.4 2.3 5.3.8 12.1-.6 2.9-4.2 8-8.3 5.3-6.4-4.3-.3-12.1 4.5-15.6"/><path fill="#85DFA9" stroke="#00112C" stroke-linecap="round" stroke-linejoin="round" stroke-width="1.5" d="M1053.7 982.4c-2.3-8.3-8.9-14.9-16.6-17.8-.3-.1-.5-1.1-.3-1.5 2.2-4.5 2.7-10.1.8-16-3.7-11.4-15.3-19.8-26.7-19.4-13.2.5-21.1 12-17.5 25 .8 3.1 2.2 5.9 4 8.5-.1 0-22.7 11.5-36.9-4.1-2.4 6.1-2.6 13.2-.3 20.2 4.5 14.2 16.1 35.2 44.4 32.4 42.3-4.2 16-1.6 33.2-3.3 5.5-.5 9.3-2.7 11.8-5.6 4.3-4.5 6.1-11.2 4.1-18.4"/><path fill="none" stroke="#00112C" stroke-linecap="round" stroke-linejoin="round" stroke-width="1.5" d="M1020.8 954.9c-.6-2.1.6-3.9 2.7-4.1 2-.2 4.2 1.3 4.7 3.4"/><path fill="#85DFA9" stroke="#00112C" stroke-linecap="round" stroke-linejoin="round" stroke-width="1.5" d="M1006.2 999.4c15.1-1.5 23.9-15.2 19.7-30.5l-54.6 5.4c4.2 15.3 19.8 26.6 34.9 25.1"/><path fill="none" stroke="#FFF" stroke-linecap="round" stroke-linejoin="round" stroke-width="1.5" d="M979.4 981.3s7.1 10.6 20.3 12.6M998.1 950.4s-3.6-11 6.5-16.8M963.4 967.8s-.1 9 4.4 15.9M1009.8 932.2s3.7-2 7.6.1"/><path fill="#08913F" stroke="#00112C" stroke-linecap="round" stroke-linejoin="round" stroke-width="1.5" d="m1039.5 954.6 9.5-.9s3.6 9-12.4 10.6c0-.1-3.9-9 2.9-9.7"/><path fill="#6F7987" stroke="#00112C" stroke-linecap="round" stroke-linejoin="round" stroke-miterlimit="10" stroke-width="1.5" d="M1909.4 1194.8h-364.3v45h364.3z"/><path fill="#DEE0E6" stroke="#00112C" stroke-linecap="round" stroke-linejoin="round" stroke-miterlimit="10" stroke-width="1.5" d="M1565.8 1194.8H487v45h1078.8z"/><path fill="#08913F" stroke="#00112C" stroke-linecap="round" stroke-linejoin="round" stroke-width="1.5" d="M1337.4 537.2c-2.3-10.9-21.5-94.3-63-104.4-1.4-.3-1.3-2.3.1-2.5 9.9-1 25.9-1.4 41.6 3.2 11.8 3.5 46.4 24.4 54.2 98.2.1.7-.4 1.3-1.1 1.4l-30.4 5c-.6.2-1.2-.2-1.4-.9"/><path fill="#0ABF53" stroke="#00112C" stroke-linecap="round" stroke-linejoin="round" stroke-width="1.5" d="M1354.7 632.3c21.3 0 38.6-23.5 38.6-52.6 0-29-17.3-52.6-38.6-52.6s-38.6 23.5-38.6 52.6 17.3 52.6 38.6 52.6"/><path fill="#85DFA9" stroke="#00112C" stroke-linecap="round" stroke-linejoin="round" stroke-width="1.5" d="M1370.5 632.3c21.3 0 38.6-23.5 38.6-52.6 0-29-17.3-52.6-38.6-52.6s-38.6 23.5-38.6 52.6c-.1 29.1 17.2 52.6 38.6 52.6"/><path fill="#08913F" stroke="#00112C" stroke-linecap="round" stroke-linejoin="round" stroke-width="1.5" d="M1373.7 606.6c10.9 0 19.7-12 19.7-26.8s-8.8-26.8-19.7-26.8-19.7 12-19.7 26.8c-.1 14.8 8.8 26.8 19.7 26.8"/><path fill="none" stroke="#85DFA9" stroke-linecap="round" stroke-linejoin="round" stroke-width="1.5" d="M1328 452.4s17.7 9.8 31.5 61.5"/></svg>